<?xml version="1.0" encoding="UTF-8"?>
<svg version="1.1" xmlns="http://www.w3.org/2000/svg" width="128" height="128">
<path d="M0 0 C42.24 0 84.48 0 128 0 C128 42.24 128 84.48 128 128 C85.76 128 43.52 128 0 128 C0 85.76 0 43.52 0 0 Z " fill="#FEFEFE" transform="translate(0,0)"/>
<path d="M0 0 C2.69990662 1.79993774 4.5418865 3.083773 6 6 C6.37677003 10.99220285 6.07396361 13.98020143 3 18 C-0.19233485 19.59616743 -3.53461497 19.51466114 -7 19 C-9.43119623 17.12984906 -10.64069173 15.71861655 -12 13 C-12.39447548 8.81855989 -12.45035186 6.69053952 -10.125 3.125 C-6.79974618 -0.20025382 -4.65430991 -0.45630489 0 0 Z " fill="#F5F5F5" transform="translate(98,58)"/>
<path d="M0 0 C12.35279786 -0.49411191 12.35279786 -0.49411191 15.39453125 1.828125 C17.55927557 4.7565869 17.52006409 6.43384626 17 10 C15.859375 12.171875 15.859375 12.171875 14 14 C11.08203125 14.390625 11.08203125 14.390625 7.8125 14.25 C6.72582031 14.21390625 5.63914062 14.1778125 4.51953125 14.140625 C3.27236328 14.07101563 3.27236328 14.07101563 2 14 C2 17.63 2 21.26 2 25 C1.34 25 0.68 25 0 25 C0 16.75 0 8.5 0 0 Z " fill="#090909" transform="translate(25,52)"/>
<path d="M0 0 C2.69990662 1.79993774 4.5418865 3.083773 6 6 C6.37677003 10.99220285 6.07396361 13.98020143 3 18 C-0.19233485 19.59616743 -3.53461497 19.51466114 -7 19 C-9.43119623 17.12984906 -10.64069173 15.71861655 -12 13 C-12.39447548 8.81855989 -12.45035186 6.69053952 -10.125 3.125 C-6.79974618 -0.20025382 -4.65430991 -0.45630489 0 0 Z M-7.8125 4 C-10.09400096 7.12891561 -10.33465073 7.58508329 -10 11.1875 C-9.39412068 15.21687403 -9.39412068 15.21687403 -6 17 C-2.38449608 17.46155369 -0.66363906 17.45406883 2.375 15.375 C4.51323431 12.24988831 4.6829669 10.71837535 4 7 C1.8744845 4.04089856 1.8744845 4.04089856 -1 2 C-5.03188135 1.61365081 -5.03188135 1.61365081 -7.8125 4 Z " fill="#1C1C1C" transform="translate(98,58)"/>
<path d="M0 0 C6.8359375 -0.1953125 6.8359375 -0.1953125 9 0 C11 2 11 2 11.25 5 C11 8 11 8 9 10 C5.98173347 10.27240673 3.03629378 10.08675125 0 10 C0 6.7 0 3.4 0 0 Z " fill="#FEFEFE" transform="translate(28,54)"/>
<path d="M0 0 C0.99 0 1.98 0 3 0 C3.06058594 0.99902344 3.12117188 1.99804688 3.18359375 3.02734375 C3.26738281 4.31769531 3.35117187 5.60804687 3.4375 6.9375 C3.51871094 8.22527344 3.59992187 9.51304688 3.68359375 10.83984375 C3.64919188 13.86023957 3.64919188 13.86023957 5 15 C8 15.16666667 8 15.16666667 11 15 C12.94090826 13.05909174 12.39919435 9.52706098 12.5625 6.9375 C12.64628906 5.64714844 12.73007813 4.35679688 12.81640625 3.02734375 C12.87699219 2.02832031 12.93757813 1.02929688 13 0 C13.66 0 14.32 0 15 0 C15.1079859 2.43868168 15.18726589 4.87259133 15.25 7.3125 C15.30027344 8.34793945 15.30027344 8.34793945 15.3515625 9.40429688 C15.45023529 14.51061381 15.45023529 14.51061381 13.203125 16.953125 C9.94453731 18.50153192 7.55487618 18.44435952 4 18 C1.796875 16.42578125 1.796875 16.42578125 0 14 C-0.390625 10.546875 -0.390625 10.546875 -0.25 6.75 C-0.21390625 5.48671875 -0.1778125 4.2234375 -0.140625 2.921875 C-0.09421875 1.95765625 -0.0478125 0.9934375 0 0 Z " fill="#151515" transform="translate(54,59)"/>
<path d="M0 0 C0.99 0 1.98 0 3 0 C3 1.32 3 2.64 3 4 C4.32 4.33 5.64 4.66 7 5 C7 5.66 7 6.32 7 7 C5.68 7 4.36 7 3 7 C3 11.62 3 16.24 3 21 C3.99 21 4.98 21 6 21 C6 21.66 6 22.32 6 23 C1.125 22.125 1.125 22.125 0 21 C-0.07271741 18.64686445 -0.08370868 16.29166332 -0.0625 13.9375 C-0.05347656 12.64714844 -0.04445313 11.35679688 -0.03515625 10.02734375 C-0.02355469 9.02832031 -0.01195313 8.02929688 0 7 C-0.99 7 -1.98 7 -3 7 C-3 6.01 -3 5.02 -3 4 C-2.01 4 -1.02 4 0 4 C0 2.68 0 1.36 0 0 Z " fill="#2C2C2C" transform="translate(76,54)"/>
<path d="M0 0 C0.66 0.33 1.32 0.66 2 1 C2 9.58 2 18.16 2 27 C1.01 26.67 0.02 26.34 -1 26 C-1.02886751 21.85418113 -1.04675327 17.70838784 -1.0625 13.5625 C-1.07087891 12.37849609 -1.07925781 11.19449219 -1.08789062 9.97460938 C-1.09111328 8.84990234 -1.09433594 7.72519531 -1.09765625 6.56640625 C-1.10289307 5.52427979 -1.10812988 4.48215332 -1.11352539 3.40844727 C-1 1 -1 1 0 0 Z " fill="#4A4A4A" transform="translate(47,50)"/>
<path d="M0 0 C0.33 0.66 0.66 1.32 1 2 C1.66 2 2.32 2 3 2 C3 5.3 3 8.6 3 12 C5.64 12 8.28 12 11 12 C11 12.33 11 12.66 11 13 C7.7 13 4.4 13 1 13 C1 16.96 1 20.92 1 25 C0.67 25 0.34 25 0 25 C0 16.75 0 8.5 0 0 Z " fill="#4D4D4D" transform="translate(25,52)"/>
<path d="M0 0 C0.99 0 1.98 0 3 0 C3 4.62 3 9.24 3 14 C2.01 14 1.02 14 0 14 C0 9.38 0 4.76 0 0 Z " fill="#404040" transform="translate(54,59)"/>
<path d="M0 0 C0.99 0 1.98 0 3 0 C3 1.32 3 2.64 3 4 C3.99 4.33 4.98 4.66 6 5 C4.35 5 2.7 5 1 5 C1 10.28 1 15.56 1 21 C0.67 21 0.34 21 0 21 C0 16.38 0 11.76 0 7 C-0.99 7 -1.98 7 -3 7 C-3 6.01 -3 5.02 -3 4 C-2.01 4 -1.02 4 0 4 C0 2.68 0 1.36 0 0 Z " fill="#555555" transform="translate(76,54)"/>
<path d="M0 0 C0.99 0.33 1.98 0.66 3 1 C2.360625 1.66 1.72125 2.32 1.0625 3 C-1.58912502 6.85690912 -1.68667121 9.37840033 -2 14 C-4 12 -4 12 -4.375 8.6875 C-3.94805086 4.48916683 -2.88994071 2.98025136 0 0 Z " fill="#131313" transform="translate(90,59)"/>
<path d="M0 0 C3.75257718 -0.34907695 5.56588078 -0.27011863 8.8125 1.75 C10.96634616 3.96538462 11.67715014 4.98673462 12 8 C9 7 9 7 7.125 5 C4.71248065 2.72939356 3.23922825 2.35991425 0 2 C0 1.34 0 0.68 0 0 Z " fill="#242424" transform="translate(92,58)"/>
<path d="M0 0 C0.25 2.75 0.25 2.75 0 6 C-2 8.375 -2 8.375 -4 10 C-4 6.70772079 -3.84985257 4.14445451 -3 1 C-1 0 -1 0 0 0 Z " fill="#464646" transform="translate(42,56)"/>
</svg>
